<svg width="16" height="16" viewBox="0 0 16 16" fill="none" xmlns="http://www.w3.org/2000/svg">
<g clip-path="url(#clip0_1996_234)">
<path opacity="0.5" fill-rule="evenodd" clip-rule="evenodd" d="M1 8C1 9.85652 1.7375 11.637 3.05025 12.9497C4.36301 14.2625 6.14348 15 8 15C9.85652 15 11.637 14.2625 12.9497 12.9497C14.2625 11.637 15 9.85652 15 8C15 6.14348 14.2625 4.36301 12.9497 3.05025C11.637 1.7375 9.85652 1 8 1C6.14348 1 4.36301 1.7375 3.05025 3.05025C1.7375 4.36301 1 6.14348 1 8ZM16 8C16 10.1217 15.1571 12.1566 13.6569 13.6569C12.1566 15.1571 10.1217 16 8 16C5.87827 16 3.84344 15.1571 2.34315 13.6569C0.842855 12.1566 0 10.1217 0 8C0 5.87827 0.842855 3.84344 2.34315 2.34315C3.84344 0.842855 5.87827 0 8 0C10.1217 0 12.1566 0.842855 13.6569 2.34315C15.1571 3.84344 16 5.87827 16 8Z" fill="white"/>
<path d="M4.14645 7.64708C4.24021 7.55331 4.36739 7.50063 4.5 7.50063H10.293L8.146 5.35463C8.09951 5.30814 8.06264 5.25295 8.03748 5.19222C8.01232 5.13148 7.99937 5.06638 7.99937 5.00063C7.99937 4.93489 8.01232 4.86979 8.03748 4.80905C8.06264 4.74831 8.09951 4.69312 8.146 4.64663C8.19249 4.60014 8.24768 4.56327 8.30842 4.53811C8.36916 4.51295 8.43426 4.5 8.5 4.5C8.56574 4.5 8.63084 4.51295 8.69158 4.53811C8.75232 4.56327 8.80751 4.60014 8.854 4.64663L11.854 7.64663C11.9006 7.69308 11.9375 7.74825 11.9627 7.809C11.9879 7.86974 12.0009 7.93486 12.0009 8.00063C12.0009 8.0664 11.9879 8.13152 11.9627 8.19227C11.9375 8.25301 11.9006 8.30819 11.854 8.35463L8.854 11.3546C8.80751 11.4011 8.75232 11.438 8.69158 11.4632C8.63084 11.4883 8.56574 11.5013 8.5 11.5013C8.43426 11.5013 8.36916 11.4883 8.30842 11.4632C8.24768 11.438 8.19249 11.4011 8.146 11.3546C8.09951 11.3081 8.06264 11.253 8.03748 11.1922C8.01232 11.1315 7.99937 11.0664 7.99937 11.0006C7.99937 10.9349 8.01232 10.8698 8.03748 10.809C8.06264 10.7483 8.09951 10.6931 8.146 10.6466L10.293 8.50063H4.5C4.36739 8.50063 4.24021 8.44795 4.14645 8.35419C4.05268 8.26042 4 8.13324 4 8.00063C4 7.86802 4.05268 7.74085 4.14645 7.64708Z" fill="white"/>
</g>
<defs>
<clipPath id="clip0_1996_234">
<rect width="16" height="16" fill="white"/>
</clipPath>
</defs>
</svg>
