<svg width="135" height="81" viewBox="0 0 135 81" fill="none" xmlns="http://www.w3.org/2000/svg">
<path d="M97.6652 80.9272H75.7767L66.3308 32.9011H88.2193L97.6652 80.9272Z" fill="#00BDB1"/>
<path d="M96.7242 80.9272H75.7767L66.7 38.4303L87.2783 32.9011L96.7242 80.9272Z" fill="white"/>
<path d="M59.4202 80.9272H37.7715L17.1296 52.4971H38.7784L59.4202 80.9272Z" fill="#00BDB1"/>
<path d="M58.4791 80.9272H37.7713L18.606 55.446L37.8372 52.4971L58.4791 80.9272Z" fill="white"/>
<path d="M59.6599 80.9272H39.042L67.6013 32.9011H88.2192L59.6599 80.9272Z" fill="#00BDB1"/>
<path d="M1.27075 80.9272H21.8886L38.7965 52.4971H18.1786L1.27075 80.9272Z" fill="#00BDB1"/>
<path d="M36.543 80.9272H57.1608L74.0687 52.4971H53.4508L36.543 80.9272Z" fill="#00BDB1"/>
<path d="M95.1365 81.134H74.147L103.24 33.0837H125.024L95.1365 81.134Z" fill="#00BDB1"/>
<path d="M58.3893 80.9272H37.7715L66.3308 32.9011H86.9547L58.3893 80.9272Z" fill="white"/>
<path d="M0 80.9272H20.6179L37.5257 52.4971H16.9078L0 80.9272Z" fill="white"/>
<path d="M134.729 31.9495L133.944 0L105.523 14.6999L112.727 18.9554L75.7766 80.9272H96.3945L127.975 27.9633L134.729 31.9495Z" fill="white"/>
</svg>
